<mxfile host="app.diagrams.net" modified="2021-08-18T04:56:52.629Z" agent="5.0 (X11)" etag="arg-mPgj_3ASqtKCcDsK" version="14.9.5" type="github">
  <diagram id="E8FwK1Yb0fMm7Pwahbm8" name="Page-1">
    <mxGraphModel dx="1422" dy="801" grid="1" gridSize="10" guides="1" tooltips="1" connect="1" arrows="1" fold="1" page="1" pageScale="1" pageWidth="850" pageHeight="1100" math="0" shadow="0">
      <root>
        <mxCell id="0" />
        <mxCell id="1" parent="0" />
        <mxCell id="yZTReSd8pjciLODXqmeo-60" value="imp." style="shape=umlFrame;whiteSpace=wrap;html=1;" vertex="1" parent="1">
          <mxGeometry x="975" y="15" width="300" height="200" as="geometry" />
        </mxCell>
        <mxCell id="yZTReSd8pjciLODXqmeo-30" style="edgeStyle=orthogonalEdgeStyle;rounded=0;orthogonalLoop=1;jettySize=auto;html=1;exitX=0.5;exitY=1;exitDx=0;exitDy=0;entryX=0.5;entryY=0;entryDx=0;entryDy=0;endArrow=none;endFill=0;" edge="1" parent="1" source="yZTReSd8pjciLODXqmeo-2" target="yZTReSd8pjciLODXqmeo-6">
          <mxGeometry relative="1" as="geometry" />
        </mxCell>
        <mxCell id="yZTReSd8pjciLODXqmeo-31" style="edgeStyle=orthogonalEdgeStyle;rounded=0;orthogonalLoop=1;jettySize=auto;html=1;exitX=0.5;exitY=1;exitDx=0;exitDy=0;endArrow=none;endFill=0;" edge="1" parent="1" source="yZTReSd8pjciLODXqmeo-2" target="yZTReSd8pjciLODXqmeo-10">
          <mxGeometry relative="1" as="geometry" />
        </mxCell>
        <mxCell id="yZTReSd8pjciLODXqmeo-32" style="edgeStyle=orthogonalEdgeStyle;rounded=0;orthogonalLoop=1;jettySize=auto;html=1;exitX=0.5;exitY=1;exitDx=0;exitDy=0;endArrow=none;endFill=0;" edge="1" parent="1" source="yZTReSd8pjciLODXqmeo-2" target="yZTReSd8pjciLODXqmeo-14">
          <mxGeometry relative="1" as="geometry" />
        </mxCell>
        <mxCell id="yZTReSd8pjciLODXqmeo-33" style="edgeStyle=orthogonalEdgeStyle;rounded=0;orthogonalLoop=1;jettySize=auto;html=1;exitX=0.5;exitY=1;exitDx=0;exitDy=0;entryX=0.5;entryY=0;entryDx=0;entryDy=0;startArrow=none;startFill=0;endSize=9;targetPerimeterSpacing=0;endArrow=none;endFill=0;" edge="1" parent="1" source="yZTReSd8pjciLODXqmeo-2" target="yZTReSd8pjciLODXqmeo-18">
          <mxGeometry relative="1" as="geometry" />
        </mxCell>
        <mxCell id="yZTReSd8pjciLODXqmeo-2" value="Abstract Scene&#xa;" style="swimlane;fontStyle=1;align=center;verticalAlign=top;childLayout=stackLayout;horizontal=1;startSize=26;horizontalStack=0;resizeParent=1;resizeParentMax=0;resizeLast=0;collapsible=1;marginBottom=0;" vertex="1" parent="1">
          <mxGeometry x="30" y="232" width="180" height="180" as="geometry" />
        </mxCell>
        <mxCell id="yZTReSd8pjciLODXqmeo-3" value="- name: String" style="text;strokeColor=none;fillColor=none;align=left;verticalAlign=top;spacingLeft=4;spacingRight=4;overflow=hidden;rotatable=0;points=[[0,0.5],[1,0.5]];portConstraint=eastwest;" vertex="1" parent="yZTReSd8pjciLODXqmeo-2">
          <mxGeometry y="26" width="180" height="26" as="geometry" />
        </mxCell>
        <mxCell id="yZTReSd8pjciLODXqmeo-4" value="" style="line;strokeWidth=1;fillColor=none;align=left;verticalAlign=middle;spacingTop=-1;spacingLeft=3;spacingRight=3;rotatable=0;labelPosition=right;points=[];portConstraint=eastwest;" vertex="1" parent="yZTReSd8pjciLODXqmeo-2">
          <mxGeometry y="52" width="180" height="8" as="geometry" />
        </mxCell>
        <mxCell id="yZTReSd8pjciLODXqmeo-5" value="+ getSceneName(void): string&#xa;+ display()&#xa;+ setRenderFn()&#xa;+ setKeyboardFn()&#xa;" style="text;strokeColor=none;fillColor=none;align=left;verticalAlign=top;spacingLeft=4;spacingRight=4;overflow=hidden;rotatable=0;points=[[0,0.5],[1,0.5]];portConstraint=eastwest;" vertex="1" parent="yZTReSd8pjciLODXqmeo-2">
          <mxGeometry y="60" width="180" height="120" as="geometry" />
        </mxCell>
        <mxCell id="yZTReSd8pjciLODXqmeo-65" style="edgeStyle=orthogonalEdgeStyle;rounded=0;orthogonalLoop=1;jettySize=auto;html=1;exitX=0.75;exitY=0;exitDx=0;exitDy=0;entryX=0.25;entryY=1;entryDx=0;entryDy=0;dashed=1;startArrow=none;startFill=0;endArrow=classic;endFill=1;endSize=9;targetPerimeterSpacing=0;" edge="1" parent="1" source="yZTReSd8pjciLODXqmeo-6" target="yZTReSd8pjciLODXqmeo-22">
          <mxGeometry relative="1" as="geometry" />
        </mxCell>
        <mxCell id="yZTReSd8pjciLODXqmeo-67" style="edgeStyle=orthogonalEdgeStyle;rounded=0;orthogonalLoop=1;jettySize=auto;html=1;exitX=1;exitY=0;exitDx=0;exitDy=0;entryX=0;entryY=0.5;entryDx=0;entryDy=0;dashed=1;startArrow=none;startFill=0;endArrow=classic;endFill=1;endSize=9;targetPerimeterSpacing=0;" edge="1" parent="1" source="yZTReSd8pjciLODXqmeo-6" target="yZTReSd8pjciLODXqmeo-29">
          <mxGeometry relative="1" as="geometry" />
        </mxCell>
        <mxCell id="yZTReSd8pjciLODXqmeo-6" value="Battle Scene" style="swimlane;fontStyle=1;align=center;verticalAlign=top;childLayout=stackLayout;horizontal=1;startSize=26;horizontalStack=0;resizeParent=1;resizeParentMax=0;resizeLast=0;collapsible=1;marginBottom=0;" vertex="1" parent="1">
          <mxGeometry x="170" y="790" width="180" height="114" as="geometry" />
        </mxCell>
        <mxCell id="yZTReSd8pjciLODXqmeo-8" value="" style="line;strokeWidth=1;fillColor=none;align=left;verticalAlign=middle;spacingTop=-1;spacingLeft=3;spacingRight=3;rotatable=0;labelPosition=right;points=[];portConstraint=eastwest;" vertex="1" parent="yZTReSd8pjciLODXqmeo-6">
          <mxGeometry y="26" width="180" height="8" as="geometry" />
        </mxCell>
        <mxCell id="yZTReSd8pjciLODXqmeo-9" value="+ getSceneName(void): string&#xa;+ display()&#xa;+ setRenderFn()&#xa;+ setKeyboardFn()&#xa;&#xa;&#xa;" style="text;strokeColor=none;fillColor=none;align=left;verticalAlign=top;spacingLeft=4;spacingRight=4;overflow=hidden;rotatable=0;points=[[0,0.5],[1,0.5]];portConstraint=eastwest;" vertex="1" parent="yZTReSd8pjciLODXqmeo-6">
          <mxGeometry y="34" width="180" height="80" as="geometry" />
        </mxCell>
        <mxCell id="yZTReSd8pjciLODXqmeo-70" style="edgeStyle=orthogonalEdgeStyle;rounded=0;orthogonalLoop=1;jettySize=auto;html=1;exitX=0.75;exitY=0;exitDx=0;exitDy=0;entryX=0.013;entryY=0.769;entryDx=0;entryDy=0;entryPerimeter=0;dashed=1;startArrow=none;startFill=0;endArrow=classic;endFill=1;endSize=9;targetPerimeterSpacing=0;" edge="1" parent="1" source="yZTReSd8pjciLODXqmeo-10" target="yZTReSd8pjciLODXqmeo-23">
          <mxGeometry relative="1" as="geometry" />
        </mxCell>
        <mxCell id="yZTReSd8pjciLODXqmeo-71" style="edgeStyle=orthogonalEdgeStyle;rounded=0;orthogonalLoop=1;jettySize=auto;html=1;exitX=1;exitY=0;exitDx=0;exitDy=0;entryX=0.175;entryY=1.038;entryDx=0;entryDy=0;entryPerimeter=0;dashed=1;startArrow=none;startFill=0;endArrow=classic;endFill=1;endSize=9;targetPerimeterSpacing=0;" edge="1" parent="1" source="yZTReSd8pjciLODXqmeo-10" target="yZTReSd8pjciLODXqmeo-29">
          <mxGeometry relative="1" as="geometry" />
        </mxCell>
        <mxCell id="yZTReSd8pjciLODXqmeo-10" value="Dialogue Scene" style="swimlane;fontStyle=1;align=center;verticalAlign=top;childLayout=stackLayout;horizontal=1;startSize=26;horizontalStack=0;resizeParent=1;resizeParentMax=0;resizeLast=0;collapsible=1;marginBottom=0;" vertex="1" parent="1">
          <mxGeometry x="370" y="790" width="160" height="110" as="geometry" />
        </mxCell>
        <mxCell id="yZTReSd8pjciLODXqmeo-12" value="" style="line;strokeWidth=1;fillColor=none;align=left;verticalAlign=middle;spacingTop=-1;spacingLeft=3;spacingRight=3;rotatable=0;labelPosition=right;points=[];portConstraint=eastwest;" vertex="1" parent="yZTReSd8pjciLODXqmeo-10">
          <mxGeometry y="26" width="160" height="8" as="geometry" />
        </mxCell>
        <mxCell id="yZTReSd8pjciLODXqmeo-13" value="+ getSceneName(void): string&#xa;+ display()&#xa;+ setRenderFn()&#xa;+ setKeyboardFn()&#xa;&#xa;&#xa;&#xa;&#xa;" style="text;strokeColor=none;fillColor=none;align=left;verticalAlign=top;spacingLeft=4;spacingRight=4;overflow=hidden;rotatable=0;points=[[0,0.5],[1,0.5]];portConstraint=eastwest;container=1;" vertex="1" parent="yZTReSd8pjciLODXqmeo-10">
          <mxGeometry y="34" width="160" height="76" as="geometry" />
        </mxCell>
        <mxCell id="yZTReSd8pjciLODXqmeo-72" style="edgeStyle=orthogonalEdgeStyle;rounded=0;orthogonalLoop=1;jettySize=auto;html=1;exitX=0.75;exitY=0;exitDx=0;exitDy=0;entryX=0.5;entryY=1;entryDx=0;entryDy=0;dashed=1;startArrow=none;startFill=0;endArrow=classic;endFill=1;endSize=9;targetPerimeterSpacing=0;" edge="1" parent="1" source="yZTReSd8pjciLODXqmeo-14" target="yZTReSd8pjciLODXqmeo-22">
          <mxGeometry relative="1" as="geometry" />
        </mxCell>
        <mxCell id="yZTReSd8pjciLODXqmeo-73" style="edgeStyle=orthogonalEdgeStyle;rounded=0;orthogonalLoop=1;jettySize=auto;html=1;exitX=1;exitY=0;exitDx=0;exitDy=0;entryX=0;entryY=0.5;entryDx=0;entryDy=0;dashed=1;startArrow=none;startFill=0;endArrow=classic;endFill=1;endSize=9;targetPerimeterSpacing=0;" edge="1" parent="1" source="yZTReSd8pjciLODXqmeo-14" target="yZTReSd8pjciLODXqmeo-27">
          <mxGeometry relative="1" as="geometry" />
        </mxCell>
        <mxCell id="yZTReSd8pjciLODXqmeo-14" value="Victory Scene" style="swimlane;fontStyle=1;align=center;verticalAlign=top;childLayout=stackLayout;horizontal=1;startSize=26;horizontalStack=0;resizeParent=1;resizeParentMax=0;resizeLast=0;collapsible=1;marginBottom=0;" vertex="1" parent="1">
          <mxGeometry x="580" y="790" width="180" height="110" as="geometry" />
        </mxCell>
        <mxCell id="yZTReSd8pjciLODXqmeo-16" value="" style="line;strokeWidth=1;fillColor=none;align=left;verticalAlign=middle;spacingTop=-1;spacingLeft=3;spacingRight=3;rotatable=0;labelPosition=right;points=[];portConstraint=eastwest;" vertex="1" parent="yZTReSd8pjciLODXqmeo-14">
          <mxGeometry y="26" width="180" height="8" as="geometry" />
        </mxCell>
        <mxCell id="yZTReSd8pjciLODXqmeo-17" value="+ getSceneName(void): string&#xa;+ display()&#xa;+ setRenderFn()&#xa;+ setKeyboardFn()&#xa;&#xa;&#xa;&#xa;&#xa;&#xa;&#xa;" style="text;strokeColor=none;fillColor=none;align=left;verticalAlign=top;spacingLeft=4;spacingRight=4;overflow=hidden;rotatable=0;points=[[0,0.5],[1,0.5]];portConstraint=eastwest;" vertex="1" parent="yZTReSd8pjciLODXqmeo-14">
          <mxGeometry y="34" width="180" height="76" as="geometry" />
        </mxCell>
        <mxCell id="yZTReSd8pjciLODXqmeo-74" style="edgeStyle=orthogonalEdgeStyle;rounded=0;orthogonalLoop=1;jettySize=auto;html=1;exitX=0.25;exitY=0;exitDx=0;exitDy=0;dashed=1;startArrow=none;startFill=0;endArrow=classic;endFill=1;endSize=9;targetPerimeterSpacing=0;" edge="1" parent="1" source="yZTReSd8pjciLODXqmeo-18">
          <mxGeometry relative="1" as="geometry">
            <mxPoint x="690" y="360" as="targetPoint" />
          </mxGeometry>
        </mxCell>
        <mxCell id="yZTReSd8pjciLODXqmeo-75" style="edgeStyle=orthogonalEdgeStyle;rounded=0;orthogonalLoop=1;jettySize=auto;html=1;exitX=0.75;exitY=0;exitDx=0;exitDy=0;entryX=0.5;entryY=1;entryDx=0;entryDy=0;dashed=1;startArrow=none;startFill=0;endArrow=classic;endFill=1;endSize=9;targetPerimeterSpacing=0;" edge="1" parent="1" source="yZTReSd8pjciLODXqmeo-18" target="yZTReSd8pjciLODXqmeo-26">
          <mxGeometry relative="1" as="geometry" />
        </mxCell>
        <mxCell id="yZTReSd8pjciLODXqmeo-18" value="Game Over Scene" style="swimlane;fontStyle=1;align=center;verticalAlign=top;childLayout=stackLayout;horizontal=1;startSize=26;horizontalStack=0;resizeParent=1;resizeParentMax=0;resizeLast=0;collapsible=1;marginBottom=0;" vertex="1" parent="1">
          <mxGeometry x="795" y="790" width="180" height="110" as="geometry" />
        </mxCell>
        <mxCell id="yZTReSd8pjciLODXqmeo-20" value="" style="line;strokeWidth=1;fillColor=none;align=left;verticalAlign=middle;spacingTop=-1;spacingLeft=3;spacingRight=3;rotatable=0;labelPosition=right;points=[];portConstraint=eastwest;" vertex="1" parent="yZTReSd8pjciLODXqmeo-18">
          <mxGeometry y="26" width="180" height="8" as="geometry" />
        </mxCell>
        <mxCell id="yZTReSd8pjciLODXqmeo-21" value="+ getSceneName(void): string&#xa;+ display()&#xa;+ setRenderFn()&#xa;+ setKeyboardFn()&#xa;&#xa;&#xa;&#xa;&#xa;&#xa;&#xa;&#xa;&#xa;" style="text;strokeColor=none;fillColor=none;align=left;verticalAlign=top;spacingLeft=4;spacingRight=4;overflow=hidden;rotatable=0;points=[[0,0.5],[1,0.5]];portConstraint=eastwest;" vertex="1" parent="yZTReSd8pjciLODXqmeo-18">
          <mxGeometry y="34" width="180" height="76" as="geometry" />
        </mxCell>
        <mxCell id="yZTReSd8pjciLODXqmeo-22" value="Character Sprite" style="swimlane;fontStyle=1;align=center;verticalAlign=top;childLayout=stackLayout;horizontal=1;startSize=26;horizontalStack=0;resizeParent=1;resizeParentMax=0;resizeLast=0;collapsible=1;marginBottom=0;" vertex="1" parent="1">
          <mxGeometry x="580" y="270" width="200" height="86" as="geometry" />
        </mxCell>
        <mxCell id="yZTReSd8pjciLODXqmeo-23" value="+  characterName: string" style="text;strokeColor=none;fillColor=none;align=left;verticalAlign=top;spacingLeft=4;spacingRight=4;overflow=hidden;rotatable=0;points=[[0,0.5],[1,0.5]];portConstraint=eastwest;" vertex="1" parent="yZTReSd8pjciLODXqmeo-22">
          <mxGeometry y="26" width="200" height="26" as="geometry" />
        </mxCell>
        <mxCell id="yZTReSd8pjciLODXqmeo-24" value="" style="line;strokeWidth=1;fillColor=none;align=left;verticalAlign=middle;spacingTop=-1;spacingLeft=3;spacingRight=3;rotatable=0;labelPosition=right;points=[];portConstraint=eastwest;" vertex="1" parent="yZTReSd8pjciLODXqmeo-22">
          <mxGeometry y="52" width="200" height="8" as="geometry" />
        </mxCell>
        <mxCell id="yZTReSd8pjciLODXqmeo-25" value="+ getCharacterName(void): string" style="text;strokeColor=none;fillColor=none;align=left;verticalAlign=top;spacingLeft=4;spacingRight=4;overflow=hidden;rotatable=0;points=[[0,0.5],[1,0.5]];portConstraint=eastwest;" vertex="1" parent="yZTReSd8pjciLODXqmeo-22">
          <mxGeometry y="60" width="200" height="26" as="geometry" />
        </mxCell>
        <mxCell id="yZTReSd8pjciLODXqmeo-26" value="On-Screen Text" style="swimlane;fontStyle=1;align=center;verticalAlign=top;childLayout=stackLayout;horizontal=1;startSize=26;horizontalStack=0;resizeParent=1;resizeParentMax=0;resizeLast=0;collapsible=1;marginBottom=0;" vertex="1" parent="1">
          <mxGeometry x="850" y="360" width="160" height="86" as="geometry" />
        </mxCell>
        <mxCell id="yZTReSd8pjciLODXqmeo-27" value="- text: string" style="text;strokeColor=none;fillColor=none;align=left;verticalAlign=top;spacingLeft=4;spacingRight=4;overflow=hidden;rotatable=0;points=[[0,0.5],[1,0.5]];portConstraint=eastwest;" vertex="1" parent="yZTReSd8pjciLODXqmeo-26">
          <mxGeometry y="26" width="160" height="26" as="geometry" />
        </mxCell>
        <mxCell id="yZTReSd8pjciLODXqmeo-28" value="" style="line;strokeWidth=1;fillColor=none;align=left;verticalAlign=middle;spacingTop=-1;spacingLeft=3;spacingRight=3;rotatable=0;labelPosition=right;points=[];portConstraint=eastwest;" vertex="1" parent="yZTReSd8pjciLODXqmeo-26">
          <mxGeometry y="52" width="160" height="8" as="geometry" />
        </mxCell>
        <mxCell id="yZTReSd8pjciLODXqmeo-29" value="+ OnScreenText(text): void" style="text;strokeColor=none;fillColor=none;align=left;verticalAlign=top;spacingLeft=4;spacingRight=4;overflow=hidden;rotatable=0;points=[[0,0.5],[1,0.5]];portConstraint=eastwest;" vertex="1" parent="yZTReSd8pjciLODXqmeo-26">
          <mxGeometry y="60" width="160" height="26" as="geometry" />
        </mxCell>
        <mxCell id="yZTReSd8pjciLODXqmeo-37" value="" style="triangle;whiteSpace=wrap;html=1;rotation=-90;" vertex="1" parent="1">
          <mxGeometry x="107.5" y="428" width="25" height="33" as="geometry" />
        </mxCell>
        <mxCell id="yZTReSd8pjciLODXqmeo-38" value="&lt;div align=&quot;left&quot;&gt;if scene == &#39;Battle&#39;:&lt;/div&gt;&lt;div align=&quot;left&quot;&gt;&lt;span style=&quot;white-space: pre&quot;&gt;	&lt;/span&gt;current_scene = BattleFactory(scene_num);&lt;br&gt;&lt;/div&gt;&lt;div&gt;&lt;br&gt;&lt;/div&gt;&lt;div&gt;else if scene == &#39;Dialogue&#39;:&lt;/div&gt;&lt;div&gt;&lt;span style=&quot;white-space: pre&quot;&gt;	&lt;/span&gt;current_scene = DialogueFactory(scene_num);&lt;/div&gt;&lt;div&gt;...&lt;br&gt;&lt;br&gt;current_scene.display();&lt;br&gt;&lt;/div&gt;" style="text;html=1;strokeColor=none;fillColor=none;align=left;verticalAlign=middle;whiteSpace=wrap;rounded=0;" vertex="1" parent="1">
          <mxGeometry x="990" y="60" width="330" height="140" as="geometry" />
        </mxCell>
        <mxCell id="yZTReSd8pjciLODXqmeo-48" style="edgeStyle=orthogonalEdgeStyle;rounded=0;orthogonalLoop=1;jettySize=auto;html=1;exitX=0;exitY=0.5;exitDx=0;exitDy=0;startArrow=none;startFill=0;endSize=9;targetPerimeterSpacing=0;" edge="1" parent="1" target="yZTReSd8pjciLODXqmeo-26">
          <mxGeometry relative="1" as="geometry">
            <mxPoint x="570" y="169" as="sourcePoint" />
          </mxGeometry>
        </mxCell>
        <mxCell id="yZTReSd8pjciLODXqmeo-39" value="Abstract Drawing" style="swimlane;fontStyle=1;childLayout=stackLayout;horizontal=1;startSize=26;fillColor=none;horizontalStack=0;resizeParent=1;resizeParentMax=0;resizeLast=0;collapsible=1;marginBottom=0;" vertex="1" parent="1">
          <mxGeometry x="500" y="30" width="140" height="78" as="geometry" />
        </mxCell>
        <mxCell id="yZTReSd8pjciLODXqmeo-40" value="+ xPos: int" style="text;strokeColor=none;fillColor=none;align=left;verticalAlign=top;spacingLeft=4;spacingRight=4;overflow=hidden;rotatable=0;points=[[0,0.5],[1,0.5]];portConstraint=eastwest;" vertex="1" parent="yZTReSd8pjciLODXqmeo-39">
          <mxGeometry y="26" width="140" height="26" as="geometry" />
        </mxCell>
        <mxCell id="yZTReSd8pjciLODXqmeo-41" value="+ yPos: int" style="text;strokeColor=none;fillColor=none;align=left;verticalAlign=top;spacingLeft=4;spacingRight=4;overflow=hidden;rotatable=0;points=[[0,0.5],[1,0.5]];portConstraint=eastwest;" vertex="1" parent="yZTReSd8pjciLODXqmeo-39">
          <mxGeometry y="52" width="140" height="26" as="geometry" />
        </mxCell>
        <mxCell id="yZTReSd8pjciLODXqmeo-55" style="edgeStyle=orthogonalEdgeStyle;rounded=0;orthogonalLoop=1;jettySize=auto;html=1;exitX=0;exitY=0.5;exitDx=0;exitDy=0;startArrow=none;startFill=0;endSize=9;targetPerimeterSpacing=0;" edge="1" parent="1" source="yZTReSd8pjciLODXqmeo-52" target="yZTReSd8pjciLODXqmeo-22">
          <mxGeometry relative="1" as="geometry" />
        </mxCell>
        <mxCell id="yZTReSd8pjciLODXqmeo-56" style="edgeStyle=orthogonalEdgeStyle;rounded=0;orthogonalLoop=1;jettySize=auto;html=1;exitX=1;exitY=0.5;exitDx=0;exitDy=0;entryX=0.5;entryY=1;entryDx=0;entryDy=0;startArrow=none;startFill=0;endSize=9;targetPerimeterSpacing=0;endArrow=none;endFill=0;" edge="1" parent="1" source="yZTReSd8pjciLODXqmeo-52" target="yZTReSd8pjciLODXqmeo-39">
          <mxGeometry relative="1" as="geometry" />
        </mxCell>
        <mxCell id="yZTReSd8pjciLODXqmeo-81" style="edgeStyle=orthogonalEdgeStyle;rounded=0;orthogonalLoop=1;jettySize=auto;html=1;exitX=0;exitY=0.25;exitDx=0;exitDy=0;startArrow=none;startFill=0;endArrow=classic;endFill=1;endSize=9;targetPerimeterSpacing=0;" edge="1" parent="1" source="yZTReSd8pjciLODXqmeo-52" target="yZTReSd8pjciLODXqmeo-76">
          <mxGeometry relative="1" as="geometry" />
        </mxCell>
        <mxCell id="yZTReSd8pjciLODXqmeo-52" value="" style="triangle;whiteSpace=wrap;html=1;rotation=-90;" vertex="1" parent="1">
          <mxGeometry x="557.5" y="120" width="25" height="33" as="geometry" />
        </mxCell>
        <mxCell id="yZTReSd8pjciLODXqmeo-58" style="edgeStyle=orthogonalEdgeStyle;rounded=0;orthogonalLoop=1;jettySize=auto;html=1;exitX=0.5;exitY=1;exitDx=0;exitDy=0;startArrow=none;startFill=0;endArrow=classic;endFill=1;endSize=9;targetPerimeterSpacing=0;" edge="1" parent="1" source="yZTReSd8pjciLODXqmeo-57" target="yZTReSd8pjciLODXqmeo-2">
          <mxGeometry relative="1" as="geometry" />
        </mxCell>
        <mxCell id="yZTReSd8pjciLODXqmeo-59" style="edgeStyle=orthogonalEdgeStyle;rounded=0;orthogonalLoop=1;jettySize=auto;html=1;exitX=1;exitY=0.5;exitDx=0;exitDy=0;entryX=0.003;entryY=0.505;entryDx=0;entryDy=0;startArrow=none;startFill=0;endArrow=none;endFill=0;endSize=9;targetPerimeterSpacing=0;entryPerimeter=0;dashed=1;" edge="1" parent="1" source="yZTReSd8pjciLODXqmeo-57" target="yZTReSd8pjciLODXqmeo-60">
          <mxGeometry relative="1" as="geometry" />
        </mxCell>
        <mxCell id="yZTReSd8pjciLODXqmeo-57" value="Client" style="html=1;" vertex="1" parent="1">
          <mxGeometry x="65" y="90" width="110" height="50" as="geometry" />
        </mxCell>
        <mxCell id="yZTReSd8pjciLODXqmeo-76" value="Background" style="swimlane;fontStyle=1;align=center;verticalAlign=top;childLayout=stackLayout;horizontal=1;startSize=26;horizontalStack=0;resizeParent=1;resizeParentMax=0;resizeLast=0;collapsible=1;marginBottom=0;" vertex="1" parent="1">
          <mxGeometry x="320" y="200" width="160" height="86" as="geometry" />
        </mxCell>
        <mxCell id="yZTReSd8pjciLODXqmeo-77" value="+ field: type" style="text;strokeColor=none;fillColor=none;align=left;verticalAlign=top;spacingLeft=4;spacingRight=4;overflow=hidden;rotatable=0;points=[[0,0.5],[1,0.5]];portConstraint=eastwest;" vertex="1" parent="yZTReSd8pjciLODXqmeo-76">
          <mxGeometry y="26" width="160" height="26" as="geometry" />
        </mxCell>
        <mxCell id="yZTReSd8pjciLODXqmeo-78" value="" style="line;strokeWidth=1;fillColor=none;align=left;verticalAlign=middle;spacingTop=-1;spacingLeft=3;spacingRight=3;rotatable=0;labelPosition=right;points=[];portConstraint=eastwest;" vertex="1" parent="yZTReSd8pjciLODXqmeo-76">
          <mxGeometry y="52" width="160" height="8" as="geometry" />
        </mxCell>
        <mxCell id="yZTReSd8pjciLODXqmeo-79" value="+ method(type): type" style="text;strokeColor=none;fillColor=none;align=left;verticalAlign=top;spacingLeft=4;spacingRight=4;overflow=hidden;rotatable=0;points=[[0,0.5],[1,0.5]];portConstraint=eastwest;" vertex="1" parent="yZTReSd8pjciLODXqmeo-76">
          <mxGeometry y="60" width="160" height="26" as="geometry" />
        </mxCell>
      </root>
    </mxGraphModel>
  </diagram>
</mxfile>
